<svg xmlns="http://www.w3.org/2000/svg" width="734" height="144" viewBox="0 0 734 144" fill="none" id="svg702166867_4938">
<path fill-rule="evenodd" clip-rule="evenodd" d="M76.4576 17.5651V42.3984L98.8152 56.9225L98.8213 111.911L49.4046 144L22.3637 126.441V100.92L0 86.3963V32.0953L2.12872 30.7086L49.4106 0L76.4576 17.5651ZM35.6044 123.899L49.3985 132.858L85.5624 109.362L71.7744 100.41L35.6044 123.899ZM54.0756 61.9949V86.4024L31.7058 100.927V115.292L67.1155 92.296V53.5286L54.0756 61.9949ZM76.4576 92.3082L89.4732 100.762V61.9888L76.4576 53.5347V92.3082ZM13.2467 83.8601L27.0347 92.8191L40.8289 83.8601L27.0408 74.9072L13.2467 83.8601ZM9.34204 37.1617V75.26L22.3637 66.7998V42.3923L44.7396 27.8561V14.1652L9.34204 37.1617ZM31.7058 66.7937L44.7335 75.2539V61.9888L31.7058 53.5286V66.7937ZM35.6044 44.9225L49.4106 53.8875L63.2048 44.9285L49.4046 35.9635L35.6044 44.9225ZM54.0817 27.8561L67.1155 36.3223V22.6376L54.0817 14.1652V27.8561Z" fill="#1E1E1E" fill-opacity="0.86"/>
<path d="M733.646 27.7818V118.712H718.699V27.7818H733.646Z" fill="#1E1E1E" fill-opacity="0.86"/>
<path d="M661.919 27.7818H678.61L713.985 118.712H698.041L689.073 95.045H650.833L641.989 118.712H626.543L661.919 27.7818ZM669.89 44.3485L655.815 81.9661H684.09L669.89 44.3485Z" fill="#1E1E1E" fill-opacity="0.86"/>
<path d="M601.622 98.1591C599.629 111.114 589.041 120.207 573.72 120.207C555.534 120.207 542.829 106.38 542.829 86.4503C542.829 67.0187 556.032 52.445 573.72 52.445C592.279 52.445 602.618 66.7696 602.618 84.831C602.618 86.824 602.493 88.1942 602.12 90.1872H556.531C557.776 102.768 565.125 108.622 573.72 108.622C581.941 108.622 586.923 104.512 588.667 98.1591H601.622ZM573.595 64.0293C563.88 64.0293 558.648 70.7556 557.029 79.5994H588.667C588.543 71.3784 583.187 64.0293 573.595 64.0293Z" fill="#1E1E1E" fill-opacity="0.86"/>
<path d="M515.655 46.2169C515.655 34.1344 523.004 27.7818 535.087 27.7818H542.311V39.6151H536.457C531.973 39.6151 529.855 41.6081 529.855 46.2169V53.9397H542.311V65.7731H529.855V118.712H515.655V65.7731H507.434V53.9397H515.655V46.2169Z" fill="#1E1E1E" fill-opacity="0.86"/>
<path d="M483.501 78.3538C487.736 77.731 489.978 75.738 489.978 72.0012C489.978 67.1433 485.743 63.531 478.27 63.531C470.422 63.531 465.814 67.3924 465.066 73.6205H450.742C451.987 62.0363 461.703 52.445 478.394 52.445C495.957 52.445 503.929 61.4135 503.929 75.9872V105.508C503.929 109.868 504.178 114.103 504.676 118.712H491.099C490.601 116.221 490.352 113.48 490.227 110.74C486.615 116.345 479.017 120.207 470.547 120.207C458.34 120.207 447.877 112.982 447.877 100.65C447.877 87.5714 457.717 82.3398 470.671 80.3468L483.501 78.3538ZM461.454 100.028C461.454 106.256 466.187 109.37 472.664 109.37C481.882 109.37 489.978 103.889 489.978 93.0521V87.4468L474.035 90.0626C466.935 91.3082 461.454 93.4258 461.454 100.028Z" fill="#1E1E1E" fill-opacity="0.86"/>
<path d="M371.225 90.3118H387.169C388.913 102.021 397.259 107.252 409.715 107.252C420.8 107.252 429.395 102.394 429.395 93.5504C429.395 86.3258 425.285 83.0872 415.943 81.2188L397.134 77.3574C384.678 74.8661 374.339 68.3889 374.339 53.8152C374.339 38.245 387.667 26.2871 407.722 26.2871C428.523 26.2871 441.478 37.3731 443.346 54.9363H427.9C426.904 45.8433 419.804 39.2415 407.473 39.2415C396.636 39.2415 388.913 44.9713 388.913 52.5696C388.913 59.1714 392.65 62.1608 401.12 63.9047L419.43 67.3924C434.502 70.3819 444.342 78.1047 444.342 92.4293C444.342 109.494 428.648 120.207 409.59 120.207C387.792 120.207 372.969 109.37 371.225 90.3118Z" fill="#1E1E1E" fill-opacity="0.86"/>
<path d="M369.039 98.1591C367.046 111.114 356.458 120.207 341.137 120.207C322.951 120.207 310.246 106.38 310.246 86.4503C310.246 67.0187 323.45 52.445 341.137 52.445C359.697 52.445 370.035 66.7696 370.035 84.831C370.035 86.824 369.911 88.1942 369.537 90.1872H323.948C325.193 102.768 332.542 108.622 341.137 108.622C349.358 108.622 354.341 104.512 356.084 98.1591H369.039ZM341.013 64.0293C331.297 64.0293 326.065 70.7556 324.446 79.5994H356.084C355.96 71.3784 350.604 64.0293 341.013 64.0293Z" fill="#1E1E1E" fill-opacity="0.86"/>
<path d="M243.191 142.379V53.9398H257.64V63.0328C261.252 57.1784 268.601 52.445 277.694 52.445C294.759 52.445 305.845 67.6415 305.845 86.3258C305.845 105.01 294.759 120.207 277.694 120.207C268.601 120.207 261.252 115.473 257.64 109.619V142.379H243.191ZM274.206 108.622C285.168 108.622 291.271 99.6539 291.271 86.3258C291.271 72.9977 285.168 64.0293 274.206 64.0293C263.37 64.0293 257.017 72.9977 257.017 86.3258C257.017 99.6539 263.37 108.622 274.206 108.622Z" fill="#1E1E1E" fill-opacity="0.86"/>
<path d="M213.27 126.435C209.533 136.524 204.052 142.379 191.472 142.379H185.493V130.545H191.098C196.454 130.545 199.693 128.552 201.188 123.445L202.184 120.331L177.895 53.9398H192.967L209.159 103.017L224.979 53.9398H239.552L213.27 126.435Z" fill="#1E1E1E" fill-opacity="0.86"/>
<path d="M197.867 41.1099H167.848V118.712H152.901V41.1099H122.882V27.7818H197.867V41.1099Z" fill="#1E1E1E" fill-opacity="0.86"/>
</svg>
